<svg width="208" height="170" viewBox="0 0 208 170" fill="none" xmlns="http://www.w3.org/2000/svg">
<path d="M18.9091 85C8.50909 85 0 76.5 0 66.1111V18.8889C0 8.5 8.50909 0 18.9091 0H94.5454C104.945 0 113.455 8.5 113.455 18.8889V66.1111C113.455 76.5 104.945 85 94.5454 85H75.6364V113.333L47.2727 85H18.9091ZM189.091 141.667C199.491 141.667 208 133.167 208 122.778V75.5556C208 65.1667 199.491 56.6667 189.091 56.6667H132.364V66.1111C132.364 86.8889 115.345 103.889 94.5454 103.889V122.778C94.5454 133.167 103.055 141.667 113.455 141.667H132.364V170L160.727 141.667H189.091Z" fill="#D7ABD6"/>
</svg>

