<svg width="209" height="190" viewBox="0 0 209 190" fill="none" xmlns="http://www.w3.org/2000/svg">
<path d="M12.3843 169L25.7933 174.6V84.3L1.47693 142.9C-2.62583 153.1 2.07733 164.8 12.3843 169ZM207.516 132L157.882 12.5C156.416 8.87546 153.919 5.75978 150.7 3.53818C147.481 1.31658 143.681 0.0864917 139.77 0C137.168 0 134.466 0.400001 131.865 1.5L58.115 32C54.5555 33.5096 51.5039 36.0077 49.3223 39.1982C47.1407 42.3886 45.9206 46.1375 45.8067 50C45.7067 52.5 46.207 55.4 47.1076 58L97.1413 177.5C100.043 185.3 107.448 189.9 115.253 190C117.855 190 120.457 189.5 122.959 188.5L196.608 158C201.504 155.997 205.403 152.132 207.448 147.257C209.494 142.381 209.518 136.893 207.516 132ZM65.9203 60C63.2663 60 60.7211 58.9464 58.8444 57.0711C56.9678 55.1957 55.9135 52.6522 55.9135 50C55.9135 47.3478 56.9678 44.8043 58.8444 42.9289C60.7211 41.0536 63.2663 40 65.9203 40C71.424 40 75.927 44.5 75.927 50C75.927 55.5 71.424 60 65.9203 60ZM45.9068 170C45.9068 175.304 48.0154 180.391 51.7686 184.142C55.5219 187.893 60.6124 190 65.9203 190H80.43L45.9068 106.6V170Z" fill="#D7ABD6"/>
</svg>

