<svg width="159" height="186" viewBox="0 0 159 186" fill="none" xmlns="http://www.w3.org/2000/svg">
<path d="M79.5 165.407L128.967 135.071C121.606 129.905 113.729 126.031 105.338 123.451C96.9458 120.87 88.3333 119.577 79.5 119.571C70.6667 119.566 62.0188 120.859 53.5565 123.451C45.0942 126.043 37.1059 129.843 29.5917 134.85L79.5 165.407ZM101.363 92.7786C107.399 86.7262 110.417 79.419 110.417 70.8571C110.417 62.2952 107.399 54.9881 101.363 48.9357C95.3264 42.8833 88.0389 39.8571 79.5 39.8571C70.9611 39.8571 63.6736 42.8833 57.6375 48.9357C51.6014 54.9881 48.5833 62.2952 48.5833 70.8571C48.5833 79.419 51.6014 86.7262 57.6375 92.7786C63.6736 98.8309 70.9611 101.857 79.5 101.857C88.0389 101.857 95.3264 98.8309 101.363 92.7786ZM79.5 186L0 137.286V48.7143L79.5 0L159 48.7143V137.286L79.5 186Z" fill="#D7ABD6"/>
</svg>

